<svg width="196" height="21" viewBox="0 0 196 21" fill="none" xmlns="http://www.w3.org/2000/svg">
<path d="M10.4658 12.1993H4.61167L3.64301 15H0.547504L5.83303 0.28056H9.26546L14.551 15H11.4344L10.4658 12.1993ZM9.66555 9.84083L7.53871 3.69193L5.41187 9.84083H9.66555ZM19.222 12.5783H24.4233V15H15.8738V12.6205L20.9698 5.7556H15.8949V3.33395H24.3602V5.71349L19.222 12.5783ZM25.9479 9.12486C25.9479 7.94562 26.1795 6.89975 26.6428 5.98724C27.1201 5.07473 27.7589 4.3728 28.5591 3.88145C29.3733 3.3901 30.2788 3.14443 31.2755 3.14443C32.1459 3.14443 32.904 3.31991 33.5498 3.67087C34.2096 4.02184 34.736 4.46405 35.1291 4.99752V3.33395H38.0983V15H35.1291V13.2943C34.7501 13.8418 34.2236 14.2981 33.5498 14.6631C32.89 15.014 32.1249 15.1895 31.2545 15.1895C30.2718 15.1895 29.3733 14.9368 28.5591 14.4314C27.7589 13.926 27.1201 13.2171 26.6428 12.3046C26.1795 11.378 25.9479 10.3181 25.9479 9.12486ZM35.1291 9.16697C35.1291 8.45101 34.9887 7.84033 34.7079 7.33494C34.4272 6.81551 34.0481 6.42243 33.5708 6.1557C33.0935 5.87493 32.5811 5.73454 32.0336 5.73454C31.4861 5.73454 30.9807 5.86791 30.5174 6.13464C30.0542 6.40138 29.6751 6.79446 29.3803 7.31388C29.0995 7.81927 28.9592 8.42293 28.9592 9.12486C28.9592 9.82679 29.0995 10.4445 29.3803 10.978C29.6751 11.4974 30.0542 11.8975 30.5174 12.1782C30.9947 12.459 31.5001 12.5994 32.0336 12.5994C32.5811 12.5994 33.0935 12.466 33.5708 12.1993C34.0481 11.9185 34.4272 11.5255 34.7079 11.0201C34.9887 10.5006 35.1291 9.88294 35.1291 9.16697ZM43.9257 5.14492C44.3047 4.52723 44.7961 4.0429 45.3997 3.69193C46.0174 3.34097 46.7194 3.16549 47.5055 3.16549V6.26099H46.7264C45.7998 6.26099 45.0979 6.47859 44.6206 6.91378C44.1573 7.34898 43.9257 8.10706 43.9257 9.18803V15H40.9776V3.33395H43.9257V5.14492Z" fill="#056BE4"/>
<path d="M69.7194 0.470081V15H68.2454V3.39712L63.0651 15H61.9912L56.811 3.43924V15H55.3369V0.470081H56.8952L62.5176 13.0627L68.1401 0.470081H69.7194ZM72.3895 9.23015C72.3895 8.05091 72.6211 7.01907 73.0844 6.13464C73.5617 5.23618 74.2145 4.54829 75.0428 4.07097C75.8851 3.57962 76.8327 3.33395 77.8856 3.33395C78.9806 3.33395 79.9212 3.58664 80.7073 4.09203C81.5075 4.59742 82.0831 5.24319 82.4341 6.02935V3.50241H83.9081V15H82.4341V12.452C82.0691 13.2382 81.4865 13.891 80.6863 14.4104C79.9001 14.9158 78.9595 15.1685 77.8645 15.1685C76.8257 15.1685 75.8851 14.9228 75.0428 14.4314C74.2145 13.9401 73.5617 13.2452 73.0844 12.3467C72.6211 11.4482 72.3895 10.4094 72.3895 9.23015ZM82.4341 9.25121C82.4341 8.32466 82.2446 7.51042 81.8655 6.8085C81.4865 6.10657 80.9671 5.56608 80.3072 5.18704C79.6615 4.808 78.9455 4.61848 78.1593 4.61848C77.3451 4.61848 76.6151 4.80098 75.9693 5.16598C75.3236 5.53099 74.8111 6.06445 74.4321 6.76638C74.0671 7.45427 73.8846 8.27553 73.8846 9.23015C73.8846 10.1707 74.0671 10.999 74.4321 11.715C74.8111 12.4169 75.3236 12.9574 75.9693 13.3364C76.6151 13.7014 77.3451 13.8839 78.1593 13.8839C78.9455 13.8839 79.6615 13.6944 80.3072 13.3154C80.9671 12.9363 81.4865 12.3958 81.8655 11.6939C82.2446 10.992 82.4341 10.1778 82.4341 9.25121ZM92.6641 3.29183C94.0399 3.29183 95.163 3.72001 96.0333 4.57636C96.9037 5.41868 97.3389 6.64705 97.3389 8.26149V15H95.8859V8.42995C95.8859 7.18052 95.5701 6.22589 94.9383 5.56608C94.3206 4.90627 93.4713 4.57636 92.3903 4.57636C91.2813 4.57636 90.3969 4.92733 89.7371 5.62926C89.0772 6.33118 88.7473 7.36302 88.7473 8.72476V15H87.2733V3.50241H88.7473V5.46079C89.1123 4.75886 89.6388 4.2254 90.3267 3.8604C91.0146 3.48135 91.7937 3.29183 92.6641 3.29183ZM99.9251 9.23015C99.9251 8.05091 100.157 7.01907 100.62 6.13464C101.097 5.23618 101.75 4.54829 102.578 4.07097C103.421 3.57962 104.368 3.33395 105.421 3.33395C106.516 3.33395 107.457 3.58664 108.243 4.09203C109.043 4.59742 109.619 5.24319 109.97 6.02935V3.50241H111.444V15H109.97V12.452C109.605 13.2382 109.022 13.891 108.222 14.4104C107.436 14.9158 106.495 15.1685 105.4 15.1685C104.361 15.1685 103.421 14.9228 102.578 14.4314C101.75 13.9401 101.097 13.2452 100.62 12.3467C100.157 11.4482 99.9251 10.4094 99.9251 9.23015ZM109.97 9.25121C109.97 8.32466 109.78 7.51042 109.401 6.8085C109.022 6.10657 108.503 5.56608 107.843 5.18704C107.197 4.808 106.481 4.61848 105.695 4.61848C104.881 4.61848 104.151 4.80098 103.505 5.16598C102.859 5.53099 102.347 6.06445 101.968 6.76638C101.603 7.45427 101.42 8.27553 101.42 9.23015C101.42 10.1707 101.603 10.999 101.968 11.715C102.347 12.4169 102.859 12.9574 103.505 13.3364C104.151 13.7014 104.881 13.8839 105.695 13.8839C106.481 13.8839 107.197 13.6944 107.843 13.3154C108.503 12.9363 109.022 12.3958 109.401 11.6939C109.78 10.992 109.97 10.1778 109.97 9.25121ZM119.631 3.33395C120.712 3.33395 121.653 3.58664 122.453 4.09203C123.253 4.59742 123.829 5.23618 124.18 6.0083V3.50241H125.654V15.2948C125.654 16.3477 125.422 17.2813 124.959 18.0955C124.51 18.9097 123.878 19.5345 123.064 19.9697C122.249 20.4189 121.323 20.6435 120.284 20.6435C118.81 20.6435 117.582 20.2925 116.599 19.5906C115.63 18.8887 115.026 17.9341 114.788 16.7267H116.241C116.494 17.5269 116.971 18.1657 117.673 18.643C118.389 19.1203 119.259 19.359 120.284 19.359C121.028 19.359 121.695 19.1975 122.284 18.8746C122.874 18.5658 123.337 18.1025 123.674 17.4848C124.011 16.8671 124.18 16.1371 124.18 15.2948V12.452C123.815 13.2382 123.232 13.891 122.432 14.4104C121.646 14.9158 120.712 15.1685 119.631 15.1685C118.578 15.1685 117.631 14.9228 116.788 14.4314C115.96 13.9401 115.307 13.2452 114.83 12.3467C114.367 11.4482 114.135 10.4094 114.135 9.23015C114.135 8.05091 114.367 7.01907 114.83 6.13464C115.307 5.23618 115.96 4.54829 116.788 4.07097C117.631 3.57962 118.578 3.33395 119.631 3.33395ZM124.18 9.25121C124.18 8.32466 123.99 7.51042 123.611 6.8085C123.232 6.10657 122.713 5.56608 122.053 5.18704C121.407 4.808 120.691 4.61848 119.905 4.61848C119.091 4.61848 118.361 4.80098 117.715 5.16598C117.069 5.53099 116.557 6.06445 116.178 6.76638C115.813 7.45427 115.63 8.27553 115.63 9.23015C115.63 10.1707 115.813 10.999 116.178 11.715C116.557 12.4169 117.069 12.9574 117.715 13.3364C118.361 13.7014 119.091 13.8839 119.905 13.8839C120.691 13.8839 121.407 13.6944 122.053 13.3154C122.713 12.9363 123.232 12.3958 123.611 11.6939C123.99 10.992 124.18 10.1778 124.18 9.25121ZM139.421 8.66159C139.421 9.16697 139.407 9.55304 139.379 9.81977H129.84C129.882 10.6902 130.093 11.4342 130.472 12.0519C130.851 12.6696 131.349 13.1399 131.967 13.4628C132.585 13.7716 133.258 13.926 133.988 13.926C134.943 13.926 135.743 13.6944 136.389 13.2311C137.049 12.7679 137.484 12.1432 137.695 11.357H139.253C138.972 12.4801 138.369 13.3996 137.442 14.1156C136.529 14.8175 135.378 15.1685 133.988 15.1685C132.908 15.1685 131.939 14.9298 131.082 14.4525C130.226 13.9611 129.552 13.2733 129.061 12.3888C128.584 11.4904 128.345 10.4445 128.345 9.25121C128.345 8.05793 128.584 7.01205 129.061 6.11359C129.538 5.21512 130.205 4.52723 131.061 4.04992C131.918 3.57261 132.893 3.33395 133.988 3.33395C135.083 3.33395 136.038 3.57261 136.852 4.04992C137.681 4.52723 138.312 5.173 138.748 5.98724C139.197 6.78744 139.421 7.67889 139.421 8.66159ZM137.926 8.61947C137.94 7.76312 137.765 7.03311 137.4 6.42945C137.049 5.8258 136.565 5.36954 135.947 5.06069C135.329 4.75184 134.655 4.59742 133.925 4.59742C132.83 4.59742 131.897 4.94838 131.125 5.65031C130.352 6.35224 129.924 7.34196 129.84 8.61947H137.926ZM155.806 3.29183C157.154 3.29183 158.249 3.72001 159.091 4.57636C159.947 5.41868 160.375 6.64705 160.375 8.26149V15H158.922V8.42995C158.922 7.18052 158.621 6.22589 158.017 5.56608C157.413 4.90627 156.592 4.57636 155.553 4.57636C154.472 4.57636 153.609 4.93435 152.963 5.65031C152.317 6.36628 151.994 7.40513 151.994 8.76688V15H150.541V8.42995C150.541 7.18052 150.24 6.22589 149.636 5.56608C149.032 4.90627 148.204 4.57636 147.151 4.57636C146.07 4.57636 145.207 4.93435 144.561 5.65031C143.915 6.36628 143.592 7.40513 143.592 8.76688V15H142.118V3.50241H143.592V5.48185C143.957 4.76588 144.477 4.2254 145.151 3.8604C145.824 3.48135 146.576 3.29183 147.404 3.29183C148.401 3.29183 149.271 3.53049 150.015 4.0078C150.773 4.48511 151.321 5.18704 151.658 6.11359C151.966 5.20108 152.493 4.50617 153.237 4.02886C153.995 3.53751 154.851 3.29183 155.806 3.29183ZM174.052 8.66159C174.052 9.16697 174.038 9.55304 174.01 9.81977H164.47C164.512 10.6902 164.723 11.4342 165.102 12.0519C165.481 12.6696 165.98 13.1399 166.597 13.4628C167.215 13.7716 167.889 13.926 168.619 13.926C169.573 13.926 170.374 13.6944 171.019 13.2311C171.679 12.7679 172.114 12.1432 172.325 11.357H173.883C173.602 12.4801 172.999 13.3996 172.072 14.1156C171.16 14.8175 170.009 15.1685 168.619 15.1685C167.538 15.1685 166.569 14.9298 165.713 14.4525C164.856 13.9611 164.183 13.2733 163.691 12.3888C163.214 11.4904 162.975 10.4445 162.975 9.25121C162.975 8.05793 163.214 7.01205 163.691 6.11359C164.169 5.21512 164.835 4.52723 165.692 4.04992C166.548 3.57261 167.524 3.33395 168.619 3.33395C169.714 3.33395 170.668 3.57261 171.483 4.04992C172.311 4.52723 172.943 5.173 173.378 5.98724C173.827 6.78744 174.052 7.67889 174.052 8.66159ZM172.557 8.61947C172.571 7.76312 172.395 7.03311 172.03 6.42945C171.679 5.8258 171.195 5.36954 170.577 5.06069C169.959 4.75184 169.286 4.59742 168.556 4.59742C167.461 4.59742 166.527 4.94838 165.755 5.65031C164.983 6.35224 164.555 7.34196 164.47 8.61947H172.557ZM182.139 3.29183C183.515 3.29183 184.638 3.72001 185.509 4.57636C186.379 5.41868 186.814 6.64705 186.814 8.26149V15H185.361V8.42995C185.361 7.18052 185.045 6.22589 184.414 5.56608C183.796 4.90627 182.947 4.57636 181.866 4.57636C180.757 4.57636 179.872 4.92733 179.212 5.62926C178.553 6.33118 178.223 7.36302 178.223 8.72476V15H176.749V3.50241H178.223V5.46079C178.588 4.75886 179.114 4.2254 179.802 3.8604C180.49 3.48135 181.269 3.29183 182.139 3.29183ZM191.991 4.74483V11.8834C191.991 12.5854 192.124 13.0697 192.391 13.3364C192.657 13.6032 193.128 13.7365 193.802 13.7365H195.149V15H193.57C192.531 15 191.759 14.7613 191.254 14.284C190.748 13.7927 190.495 12.9925 190.495 11.8834V4.74483H188.895V3.50241H190.495V0.617487H191.991V3.50241H195.149V4.74483H191.991Z" fill="#3A3939"/>
</svg>
