<svg width="44" height="44" viewBox="0 0 44 44" fill="none" xmlns="http://www.w3.org/2000/svg">
<g filter="url(#filter0_d_53_16405)">
<rect x="6.73828" y="0.0619507" width="30.0793" height="30.0793" rx="5.01321" fill="#FF5757"/>
</g>
<path fill-rule="evenodd" clip-rule="evenodd" d="M19.8863 9.39911C19.1322 9.39911 18.409 9.69137 17.8758 10.2116L15.3027 12.7219V13.8709C15.3027 14.6827 15.6602 15.4131 16.2298 15.9204C15.6602 16.4276 15.3027 17.158 15.3027 17.9698V19.1188L17.8758 21.6291C18.409 22.1494 19.1322 22.4416 19.8863 22.4416C20.7184 22.4416 21.467 22.0929 21.987 21.5371C22.507 22.0929 23.2556 22.4416 24.0877 22.4416C24.8418 22.4416 25.565 22.1494 26.0982 21.6291L28.6713 19.1188V17.9698C28.6713 17.158 28.3139 16.4276 27.7442 15.9204C28.3139 15.4131 28.6713 14.6827 28.6713 13.8709V12.7219L26.0982 10.2116C25.565 9.69137 24.8418 9.39911 24.0877 9.39911C23.2556 9.39911 22.507 9.74781 21.987 10.3036C21.467 9.74781 20.7184 9.39911 19.8863 9.39911ZM23.9117 15.9204C23.8796 15.8918 23.8482 15.8625 23.8174 15.8324L21.987 14.0467L20.1567 15.8324C20.1258 15.8625 20.0944 15.8918 20.0623 15.9204C20.0944 15.9489 20.1258 15.9782 20.1567 16.0083L21.987 17.794L23.8174 16.0083C23.8482 15.9782 23.8796 15.9489 23.9117 15.9204ZM22.7297 19.1188V19.6676C22.7297 20.3993 23.3377 20.9925 24.0877 20.9925C24.4478 20.9925 24.7932 20.8529 25.0479 20.6044L27.1859 18.5186V17.9698C27.1859 17.2381 26.5779 16.6449 25.8279 16.6449C25.4678 16.6449 25.1224 16.7845 24.8677 17.033L22.7297 19.1188ZM21.2443 19.1188L19.1063 17.033C18.8517 16.7845 18.5063 16.6449 18.1461 16.6449C17.3961 16.6449 16.7881 17.2381 16.7881 17.9698V18.5186L18.9261 20.6044C19.1808 20.8529 19.5262 20.9925 19.8863 20.9925C20.6363 20.9925 21.2443 20.3993 21.2443 19.6676V19.1188ZM21.2443 12.1731V12.7219L19.1063 14.8077C18.8517 15.0562 18.5063 15.1958 18.1461 15.1958C17.3961 15.1958 16.7881 14.6026 16.7881 13.8709V13.3222L18.9261 11.2363C19.1808 10.9879 19.5262 10.8483 19.8863 10.8483C20.6363 10.8483 21.2443 11.4414 21.2443 12.1731ZM24.8677 14.8077L22.7297 12.7219V12.1731C22.7297 11.4414 23.3377 10.8483 24.0877 10.8483C24.4478 10.8483 24.7932 10.9879 25.0479 11.2363L27.1859 13.3222V13.8709C27.1859 14.6026 26.5779 15.1958 25.8279 15.1958C25.4678 15.1958 25.1224 15.0562 24.8677 14.8077Z" fill="white"/>
<defs>
<filter id="filter0_d_53_16405" x="0.0540009" y="0.0619507" width="43.4486" height="43.4478" filterUnits="userSpaceOnUse" color-interpolation-filters="sRGB">
<feFlood flood-opacity="0" result="BackgroundImageFix"/>
<feColorMatrix in="SourceAlpha" type="matrix" values="0 0 0 0 0 0 0 0 0 0 0 0 0 0 0 0 0 0 127 0" result="hardAlpha"/>
<feOffset dy="6.68428"/>
<feGaussianBlur stdDeviation="3.34214"/>
<feComposite in2="hardAlpha" operator="out"/>
<feColorMatrix type="matrix" values="0 0 0 0 0 0 0 0 0 0 0 0 0 0 0 0 0 0 0.08 0"/>
<feBlend mode="normal" in2="BackgroundImageFix" result="effect1_dropShadow_53_16405"/>
<feBlend mode="normal" in="SourceGraphic" in2="effect1_dropShadow_53_16405" result="shape"/>
</filter>
</defs>
</svg>
