<svg width="44" height="44" viewBox="0 0 44 44" fill="none" xmlns="http://www.w3.org/2000/svg">
<g filter="url(#filter0_d_53_16348)">
<rect x="6.73828" y="0.24646" width="30.0793" height="30.0793" rx="5.01321" fill="#87EBC0"/>
</g>
<path fill-rule="evenodd" clip-rule="evenodd" d="M19.8863 9.58365C19.1322 9.58365 18.409 9.87591 17.8758 10.3961L15.3027 12.9064V14.0555C15.3027 14.8673 15.6602 15.5976 16.2298 16.1049C15.6602 16.6122 15.3027 17.3425 15.3027 18.1543V19.3034L17.8758 21.8137C18.409 22.3339 19.1322 22.6261 19.8863 22.6261C20.7184 22.6261 21.467 22.2775 21.987 21.7216C22.507 22.2775 23.2556 22.6261 24.0877 22.6261C24.8418 22.6261 25.565 22.3339 26.0982 21.8137L28.6713 19.3034V18.1543C28.6713 17.3425 28.3139 16.6122 27.7442 16.1049C28.3139 15.5976 28.6713 14.8673 28.6713 14.0555V12.9064L26.0982 10.3961C25.565 9.87591 24.8418 9.58365 24.0877 9.58365C23.2556 9.58365 22.507 9.93235 21.987 10.4881C21.467 9.93235 20.7184 9.58365 19.8863 9.58365ZM23.9117 16.1049C23.8796 16.0764 23.8482 16.0471 23.8174 16.017L21.987 14.2313L20.1567 16.017C20.1258 16.0471 20.0944 16.0764 20.0623 16.1049C20.0944 16.1334 20.1258 16.1627 20.1567 16.1928L21.987 17.9785L23.8174 16.1928C23.8482 16.1627 23.8796 16.1334 23.9117 16.1049ZM22.7297 19.3034V19.8521C22.7297 20.5838 23.3377 21.177 24.0877 21.177C24.4478 21.177 24.7932 21.0374 25.0479 20.7889L27.1859 18.7031V18.1543C27.1859 17.4226 26.5779 16.8295 25.8279 16.8295C25.4678 16.8295 25.1224 16.9691 24.8677 17.2175L22.7297 19.3034ZM21.2443 19.3034L19.1063 17.2175C18.8517 16.9691 18.5063 16.8295 18.1461 16.8295C17.3961 16.8295 16.7881 17.4226 16.7881 18.1543V18.7031L18.9261 20.7889C19.1808 21.0374 19.5262 21.177 19.8863 21.177C20.6363 21.177 21.2443 20.5838 21.2443 19.8521V19.3034ZM21.2443 12.3577V12.9064L19.1063 14.9923C18.8517 15.2407 18.5063 15.3803 18.1461 15.3803C17.3961 15.3803 16.7881 14.7871 16.7881 14.0555V13.5067L18.9261 11.4209C19.1808 11.1724 19.5262 11.0328 19.8863 11.0328C20.6363 11.0328 21.2443 11.626 21.2443 12.3577ZM24.8677 14.9923L22.7297 12.9064V12.3577C22.7297 11.626 23.3377 11.0328 24.0877 11.0328C24.4478 11.0328 24.7932 11.1724 25.0479 11.4209L27.1859 13.5067V14.0555C27.1859 14.7871 26.5779 15.3803 25.8279 15.3803C25.4678 15.3803 25.1224 15.2407 24.8677 14.9923Z" fill="white"/>
<defs>
<filter id="filter0_d_53_16348" x="0.0540009" y="0.24646" width="43.4486" height="43.4478" filterUnits="userSpaceOnUse" color-interpolation-filters="sRGB">
<feFlood flood-opacity="0" result="BackgroundImageFix"/>
<feColorMatrix in="SourceAlpha" type="matrix" values="0 0 0 0 0 0 0 0 0 0 0 0 0 0 0 0 0 0 127 0" result="hardAlpha"/>
<feOffset dy="6.68428"/>
<feGaussianBlur stdDeviation="3.34214"/>
<feComposite in2="hardAlpha" operator="out"/>
<feColorMatrix type="matrix" values="0 0 0 0 0 0 0 0 0 0 0 0 0 0 0 0 0 0 0.08 0"/>
<feBlend mode="normal" in2="BackgroundImageFix" result="effect1_dropShadow_53_16348"/>
<feBlend mode="normal" in="SourceGraphic" in2="effect1_dropShadow_53_16348" result="shape"/>
</filter>
</defs>
</svg>
